<mxfile host="app.diagrams.net" modified="2023-04-20T07:29:44.397Z" agent="5.0 (Windows)" etag="ydSyBLE6iH1pIMELuWQr" version="21.0.10" type="github">
  <diagram name="Página-1" id="8nW8nuK-Yj97DjsCTXll">
    <mxGraphModel dx="880" dy="481" grid="1" gridSize="10" guides="1" tooltips="1" connect="1" arrows="1" fold="1" page="1" pageScale="1" pageWidth="3300" pageHeight="4681" math="0" shadow="0">
      <root>
        <mxCell id="0" />
        <mxCell id="1" parent="0" />
        <mxCell id="lsP1zBF5-kHZk1X6wRsd-10" style="edgeStyle=none;rounded=0;orthogonalLoop=1;jettySize=auto;html=1;exitX=1;exitY=0.3333333333333333;exitDx=0;exitDy=0;exitPerimeter=0;entryX=0;entryY=0.5;entryDx=0;entryDy=0;" edge="1" parent="1" source="lsP1zBF5-kHZk1X6wRsd-1" target="lsP1zBF5-kHZk1X6wRsd-3">
          <mxGeometry relative="1" as="geometry" />
        </mxCell>
        <mxCell id="lsP1zBF5-kHZk1X6wRsd-11" style="edgeStyle=none;rounded=0;orthogonalLoop=1;jettySize=auto;html=1;exitX=1;exitY=1;exitDx=0;exitDy=0;exitPerimeter=0;entryX=0;entryY=0;entryDx=0;entryDy=0;" edge="1" parent="1" source="lsP1zBF5-kHZk1X6wRsd-1" target="lsP1zBF5-kHZk1X6wRsd-6">
          <mxGeometry relative="1" as="geometry" />
        </mxCell>
        <mxCell id="lsP1zBF5-kHZk1X6wRsd-12" style="edgeStyle=none;rounded=0;orthogonalLoop=1;jettySize=auto;html=1;exitX=0.75;exitY=0.1;exitDx=0;exitDy=0;exitPerimeter=0;entryX=0;entryY=0.5;entryDx=0;entryDy=0;" edge="1" parent="1" source="lsP1zBF5-kHZk1X6wRsd-1" target="lsP1zBF5-kHZk1X6wRsd-5">
          <mxGeometry relative="1" as="geometry" />
        </mxCell>
        <mxCell id="lsP1zBF5-kHZk1X6wRsd-1" value="Profesor" style="shape=umlActor;verticalLabelPosition=bottom;verticalAlign=top;html=1;outlineConnect=0;" vertex="1" parent="1">
          <mxGeometry x="100" y="170" width="30" height="60" as="geometry" />
        </mxCell>
        <mxCell id="lsP1zBF5-kHZk1X6wRsd-13" style="edgeStyle=none;rounded=0;orthogonalLoop=1;jettySize=auto;html=1;exitX=0.25;exitY=0.1;exitDx=0;exitDy=0;exitPerimeter=0;entryX=1;entryY=0.5;entryDx=0;entryDy=0;" edge="1" parent="1" source="lsP1zBF5-kHZk1X6wRsd-2" target="lsP1zBF5-kHZk1X6wRsd-5">
          <mxGeometry relative="1" as="geometry" />
        </mxCell>
        <mxCell id="lsP1zBF5-kHZk1X6wRsd-14" style="edgeStyle=none;rounded=0;orthogonalLoop=1;jettySize=auto;html=1;exitX=0;exitY=0.3333333333333333;exitDx=0;exitDy=0;exitPerimeter=0;entryX=1;entryY=0.5;entryDx=0;entryDy=0;" edge="1" parent="1" source="lsP1zBF5-kHZk1X6wRsd-2" target="lsP1zBF5-kHZk1X6wRsd-3">
          <mxGeometry relative="1" as="geometry" />
        </mxCell>
        <mxCell id="lsP1zBF5-kHZk1X6wRsd-2" value="Alumno" style="shape=umlActor;verticalLabelPosition=bottom;verticalAlign=top;html=1;outlineConnect=0;" vertex="1" parent="1">
          <mxGeometry x="740" y="170" width="30" height="60" as="geometry" />
        </mxCell>
        <mxCell id="lsP1zBF5-kHZk1X6wRsd-3" value="&lt;div&gt;Hacer&lt;/div&gt;&lt;div&gt;formulario&lt;br&gt;&lt;/div&gt;" style="ellipse;whiteSpace=wrap;html=1;" vertex="1" parent="1">
          <mxGeometry x="390" y="210" width="120" height="80" as="geometry" />
        </mxCell>
        <mxCell id="lsP1zBF5-kHZk1X6wRsd-5" value="Loguearse" style="ellipse;whiteSpace=wrap;html=1;" vertex="1" parent="1">
          <mxGeometry x="390" y="50" width="120" height="80" as="geometry" />
        </mxCell>
        <mxCell id="lsP1zBF5-kHZk1X6wRsd-6" value="&lt;div&gt;Diseñar&lt;/div&gt;&lt;div&gt;Form&lt;br&gt;&lt;/div&gt;" style="ellipse;whiteSpace=wrap;html=1;" vertex="1" parent="1">
          <mxGeometry x="250" y="320" width="120" height="80" as="geometry" />
        </mxCell>
        <mxCell id="lsP1zBF5-kHZk1X6wRsd-8" value="&amp;lt;&amp;lt;include&amp;gt;&amp;gt;" style="html=1;verticalAlign=bottom;labelBackgroundColor=none;endArrow=open;endFill=0;dashed=1;rounded=0;exitX=0.5;exitY=0;exitDx=0;exitDy=0;entryX=0.5;entryY=1;entryDx=0;entryDy=0;" edge="1" parent="1" source="lsP1zBF5-kHZk1X6wRsd-3" target="lsP1zBF5-kHZk1X6wRsd-5">
          <mxGeometry width="160" relative="1" as="geometry">
            <mxPoint x="80" y="120" as="sourcePoint" />
            <mxPoint x="240" y="120" as="targetPoint" />
          </mxGeometry>
        </mxCell>
      </root>
    </mxGraphModel>
  </diagram>
</mxfile>
